<mxfile host="Electron" agent="Mozilla/5.0 (Windows NT 10.0; Win64; x64) AppleWebKit/537.36 (KHTML, like Gecko) draw.io/27.0.5 Chrome/134.0.6998.205 Electron/35.3.0 Safari/537.36" version="27.0.5">
  <diagram name="Página-1" id="c0KKV1d7o4SMq9Q6W4Un">
    <mxGraphModel dx="872" dy="577" grid="1" gridSize="10" guides="1" tooltips="1" connect="1" arrows="1" fold="1" page="1" pageScale="1" pageWidth="827" pageHeight="1169" math="0" shadow="0">
      <root>
        <mxCell id="0" />
        <mxCell id="1" parent="0" />
        <mxCell id="GNwDXYsrOOjpdigex7Bn-8" style="edgeStyle=orthogonalEdgeStyle;rounded=0;orthogonalLoop=1;jettySize=auto;html=1;exitX=0.5;exitY=1;exitDx=0;exitDy=0;exitPerimeter=0;entryX=0.5;entryY=0;entryDx=0;entryDy=0;" edge="1" parent="1" source="GNwDXYsrOOjpdigex7Bn-1" target="GNwDXYsrOOjpdigex7Bn-2">
          <mxGeometry relative="1" as="geometry" />
        </mxCell>
        <mxCell id="GNwDXYsrOOjpdigex7Bn-1" value="Inicio" style="strokeWidth=2;html=1;shape=mxgraph.flowchart.start_1;whiteSpace=wrap;" vertex="1" parent="1">
          <mxGeometry x="330" y="40" width="100" height="60" as="geometry" />
        </mxCell>
        <mxCell id="GNwDXYsrOOjpdigex7Bn-9" style="edgeStyle=orthogonalEdgeStyle;rounded=0;orthogonalLoop=1;jettySize=auto;html=1;exitX=0.5;exitY=1;exitDx=0;exitDy=0;entryX=0.5;entryY=0;entryDx=0;entryDy=0;" edge="1" parent="1" source="GNwDXYsrOOjpdigex7Bn-2" target="GNwDXYsrOOjpdigex7Bn-3">
          <mxGeometry relative="1" as="geometry" />
        </mxCell>
        <mxCell id="GNwDXYsrOOjpdigex7Bn-2" value="Sistema de Ecuaciones Lineales antes de las condiciones" style="rounded=1;whiteSpace=wrap;html=1;absoluteArcSize=1;arcSize=14;strokeWidth=2;" vertex="1" parent="1">
          <mxGeometry x="330" y="200" width="100" height="100" as="geometry" />
        </mxCell>
        <mxCell id="GNwDXYsrOOjpdigex7Bn-10" style="edgeStyle=orthogonalEdgeStyle;rounded=0;orthogonalLoop=1;jettySize=auto;html=1;exitX=0.5;exitY=1;exitDx=0;exitDy=0;" edge="1" parent="1" source="GNwDXYsrOOjpdigex7Bn-3" target="GNwDXYsrOOjpdigex7Bn-4">
          <mxGeometry relative="1" as="geometry" />
        </mxCell>
        <mxCell id="GNwDXYsrOOjpdigex7Bn-3" value="Sistema de Ecuaciones Lineales con las condiciones" style="rounded=1;whiteSpace=wrap;html=1;absoluteArcSize=1;arcSize=14;strokeWidth=2;" vertex="1" parent="1">
          <mxGeometry x="330" y="370" width="100" height="100" as="geometry" />
        </mxCell>
        <mxCell id="GNwDXYsrOOjpdigex7Bn-11" style="edgeStyle=orthogonalEdgeStyle;rounded=0;orthogonalLoop=1;jettySize=auto;html=1;exitX=0.5;exitY=1;exitDx=0;exitDy=0;entryX=0.5;entryY=0;entryDx=0;entryDy=0;" edge="1" parent="1" source="GNwDXYsrOOjpdigex7Bn-4" target="GNwDXYsrOOjpdigex7Bn-5">
          <mxGeometry relative="1" as="geometry" />
        </mxCell>
        <mxCell id="GNwDXYsrOOjpdigex7Bn-4" value="Resolver el Sistema de Ecuaciones Lineales" style="rounded=1;whiteSpace=wrap;html=1;absoluteArcSize=1;arcSize=14;strokeWidth=2;" vertex="1" parent="1">
          <mxGeometry x="330" y="540" width="100" height="100" as="geometry" />
        </mxCell>
        <mxCell id="GNwDXYsrOOjpdigex7Bn-12" style="edgeStyle=orthogonalEdgeStyle;rounded=0;orthogonalLoop=1;jettySize=auto;html=1;exitX=0.5;exitY=1;exitDx=0;exitDy=0;entryX=0.5;entryY=0;entryDx=0;entryDy=0;" edge="1" parent="1" source="GNwDXYsrOOjpdigex7Bn-5" target="GNwDXYsrOOjpdigex7Bn-6">
          <mxGeometry relative="1" as="geometry" />
        </mxCell>
        <mxCell id="GNwDXYsrOOjpdigex7Bn-5" value="Evaluar la solución y exacta" style="rounded=1;whiteSpace=wrap;html=1;absoluteArcSize=1;arcSize=14;strokeWidth=2;" vertex="1" parent="1">
          <mxGeometry x="330" y="710" width="100" height="100" as="geometry" />
        </mxCell>
        <mxCell id="GNwDXYsrOOjpdigex7Bn-13" style="edgeStyle=orthogonalEdgeStyle;rounded=0;orthogonalLoop=1;jettySize=auto;html=1;exitX=0.5;exitY=1;exitDx=0;exitDy=0;" edge="1" parent="1" source="GNwDXYsrOOjpdigex7Bn-6" target="GNwDXYsrOOjpdigex7Bn-7">
          <mxGeometry relative="1" as="geometry" />
        </mxCell>
        <mxCell id="GNwDXYsrOOjpdigex7Bn-6" value="Graficar las soluciones" style="rounded=1;whiteSpace=wrap;html=1;absoluteArcSize=1;arcSize=14;strokeWidth=2;" vertex="1" parent="1">
          <mxGeometry x="330" y="880" width="100" height="100" as="geometry" />
        </mxCell>
        <mxCell id="GNwDXYsrOOjpdigex7Bn-7" value="Fin" style="strokeWidth=2;html=1;shape=mxgraph.flowchart.terminator;whiteSpace=wrap;" vertex="1" parent="1">
          <mxGeometry x="330" y="1050" width="100" height="60" as="geometry" />
        </mxCell>
      </root>
    </mxGraphModel>
  </diagram>
</mxfile>
